<?xml version="1.0" standalone="no"?>
<!DOCTYPE svg PUBLIC "-//W3C//DTD SVG 20010904//EN"
 "http://www.w3.org/TR/2001/REC-SVG-20010904/DTD/svg10.dtd">
<svg version="1.0" xmlns="http://www.w3.org/2000/svg"
 width="225.000000pt" height="225.000000pt" viewBox="0 0 225.000000 225.000000"
 preserveAspectRatio="xMidYMid meet">

<g transform="translate(0.000000,225.000000) scale(0.100000,-0.100000)"
fill="#000000" stroke="none">
<path d="M1014 2078 c12 -47 30 -238 22 -245 -4 -4 -76 -10 -160 -13 l-153 -5
148 -85 c82 -47 149 -90 149 -97 0 -22 -68 -141 -119 -209 -28 -37 -49 -69
-47 -71 6 -6 151 48 195 74 25 15 69 48 97 75 l51 48 69 -72 c38 -40 88 -102
112 -137 l42 -63 0 71 c0 84 -22 197 -55 290 l-24 65 36 46 c21 25 59 71 86
103 27 31 44 57 38 57 -7 0 -64 -12 -128 -26 l-116 -26 -25 33 c-34 47 -201
209 -214 209 -6 0 -8 -10 -4 -22z"/>
<path d="M0 565 l0 -565 1125 0 1125 0 0 565 0 565 -1125 0 -1125 0 0 -565z
m510 216 l0 -169 -30 -4 -30 -5 0 168 c0 183 -5 167 53 178 4 0 7 -75 7 -168z
m894 155 c45 -19 51 -31 29 -60 -16 -21 -20 -22 -40 -9 -31 21 -67 13 -71 -14
-3 -19 6 -27 51 -47 30 -13 62 -34 71 -47 53 -76 -32 -179 -127 -155 -13 3
-36 15 -51 27 l-27 21 22 24 c21 22 24 23 40 8 10 -9 30 -14 51 -12 25 2 34 8
36 26 3 18 -6 26 -48 46 -74 35 -90 52 -90 100 1 47 14 69 56 91 36 19 56 19
98 1z m-1055 -11 c16 -8 31 -22 35 -30 11 -30 6 -82 -9 -95 -13 -11 -12 -16
10 -42 34 -40 33 -82 -4 -119 -28 -28 -34 -29 -115 -29 l-86 0 0 165 0 165 70
0 c43 0 82 -6 99 -15z m1231 -40 c0 -32 2 -35 30 -35 25 0 30 -4 30 -25 0 -21
-5 -25 -30 -25 -30 0 -30 0 -30 -58 0 -62 11 -82 46 -82 19 0 21 -4 15 -27
-10 -37 -56 -43 -94 -13 -25 20 -27 27 -27 101 0 73 -2 79 -21 79 -17 0 -19 4
-13 23 3 12 13 26 20 30 8 4 14 16 14 26 0 16 30 38 53 40 4 1 7 -15 7 -34z
m-950 -109 c0 -46 3 -91 6 -100 7 -19 59 -22 71 -3 4 6 10 50 13 97 l5 85 33
3 32 3 0 -124 0 -125 -30 -4 c-17 -3 -33 -1 -36 4 -3 4 -14 4 -24 -2 -32 -17
-77 -11 -106 14 -26 21 -28 30 -32 114 -5 110 -2 122 38 122 l30 0 0 -84z
m423 44 l29 -33 -81 -51 c-44 -28 -79 -55 -78 -61 6 -17 54 -17 86 -1 28 15
31 15 41 -3 5 -11 10 -25 10 -31 0 -15 -63 -40 -102 -40 -61 0 -124 55 -128
110 -5 56 2 74 40 112 39 39 42 40 97 36 48 -4 61 -10 86 -38z m792 15 c23
-22 25 -31 25 -123 l0 -100 -27 -5 c-16 -3 -29 -1 -31 3 -2 5 -14 4 -27 -2
-33 -15 -91 -2 -110 25 -24 34 -19 90 10 117 20 19 32 22 75 18 53 -5 60 0 33
27 -12 13 -26 15 -60 10 -45 -6 -47 -5 -37 33 6 20 13 22 66 22 49 0 63 -4 83
-25z m135 9 c0 -14 2 -14 22 0 12 9 32 16 45 16 20 0 21 -2 11 -31 -6 -18 -21
-34 -37 -40 -36 -14 -41 -25 -41 -105 l0 -72 -30 -4 -30 -5 0 129 0 128 30 0
c20 0 30 -5 30 -16z m-647 -376 c-20 -22 -31 -23 -55 -1 -18 16 -18 17 4 40
l22 23 23 -22 c21 -20 22 -23 6 -40z m-709 26 c17 -44 8 -54 -49 -54 l-55 0 0
-35 c0 -34 1 -35 40 -35 38 0 40 -2 40 -30 0 -28 -2 -30 -40 -30 l-40 0 0 -64
c0 -58 -2 -64 -22 -70 -49 -13 -48 -16 -48 164 l0 170 84 0 c67 0 85 -3 90
-16z m241 -95 c19 -17 35 -35 35 -39 0 -4 -36 -29 -80 -56 -44 -27 -79 -53
-77 -59 6 -17 55 -17 87 -1 29 14 31 14 45 -14 14 -27 14 -28 -19 -44 -98 -47
-206 16 -206 119 0 71 60 125 137 125 33 0 50 -7 78 -31z m133 15 c8 -14 10
-14 21 0 14 17 61 22 61 7 0 -28 -21 -61 -39 -61 -30 0 -41 -30 -41 -108 l0
-70 -30 -4 c-17 -3 -32 -2 -35 0 -8 8 -6 238 2 245 12 13 52 7 61 -9z m162 -4
l0 -20 20 20 c20 20 70 28 70 11 0 -26 -21 -61 -38 -61 -33 0 -42 -21 -42
-101 l0 -77 -30 -4 c-17 -3 -32 -2 -35 0 -8 8 -6 238 2 245 3 4 17 7 30 7 16
0 23 -6 23 -20z m180 -105 c0 -117 -1 -125 -19 -125 -11 0 -26 -3 -35 -6 -14
-5 -16 9 -16 118 0 69 3 128 7 131 3 4 19 7 35 7 l28 0 0 -125z m237 105 c64
-38 60 -51 -28 -104 -44 -27 -78 -54 -76 -60 6 -17 53 -19 85 -2 28 14 30 14
41 -10 15 -34 15 -33 -24 -50 -76 -32 -153 -4 -189 69 -26 53 -15 96 34 141
33 29 48 36 83 36 24 0 56 -8 74 -20z m234 1 c23 -19 23 -20 6 -39 -18 -19
-20 -19 -47 -4 -23 13 -32 14 -41 5 -14 -14 4 -43 28 -43 28 0 73 -31 79 -55
15 -59 -27 -105 -96 -105 -33 0 -90 25 -90 39 0 18 36 40 50 31 8 -5 28 -10
43 -10 45 0 30 31 -23 51 -70 26 -89 89 -38 132 28 23 99 23 129 -2z m116 -7
c6 -17 -6 -45 -23 -51 -21 -7 -47 23 -40 45 9 27 53 30 63 6z"/>
<path d="M250 840 c0 -37 0 -37 33 -31 25 5 32 12 32 31 0 19 -7 26 -32 31
-33 6 -33 6 -33 -31z"/>
<path d="M250 710 c0 -42 8 -47 57 -34 51 14 33 74 -22 74 -34 0 -35 -1 -35
-40z"/>
<path d="M914 787 c-14 -13 -25 -30 -23 -40 3 -14 11 -12 51 14 26 17 45 35
42 40 -10 16 -42 9 -70 -14z"/>
<path d="M1730 705 c-19 -22 -4 -45 28 -45 38 0 60 24 42 45 -16 19 -54 19
-70 0z"/>
<path d="M735 355 c-14 -13 -25 -31 -25 -40 0 -14 5 -13 38 6 74 45 75 46 57
53 -29 11 -45 7 -70 -19z"/>
<path d="M1466 359 c-14 -11 -26 -29 -26 -40 0 -17 5 -16 50 12 49 30 57 49
21 49 -10 0 -30 -9 -45 -21z"/>
</g>
</svg>
