<?xml version="1.0" standalone="no"?>
<!DOCTYPE svg PUBLIC "-//W3C//DTD SVG 20010904//EN"
 "http://www.w3.org/TR/2001/REC-SVG-20010904/DTD/svg10.dtd">
<svg version="1.0" xmlns="http://www.w3.org/2000/svg"
 width="330.000000pt" height="302.000000pt" viewBox="0 0 330.000000 302.000000"
 preserveAspectRatio="xMidYMid meet">

<g transform="translate(0.000000,302.000000) scale(0.100000,-0.100000)"
fill="#000000" stroke="none">
<path d="M1575 2151 c-107 -49 -144 -168 -89 -280 76 -151 300 -157 374 -10
23 44 17 51 -11 15 -27 -34 -116 -76 -161 -76 -132 0 -218 135 -155 244 56 98
192 98 233 -1 28 -65 -14 -133 -82 -133 -36 0 -64 26 -64 61 0 46 46 69 52 27
4 -32 42 -31 46 0 9 59 -77 84 -123 37 -39 -38 -35 -97 9 -141 30 -30 40 -34
85 -34 42 0 56 5 86 31 85 75 60 210 -49 260 -52 24 -100 24 -151 0z"/>
<path d="M573 1191 c-86 -54 -82 -190 6 -236 43 -22 107 -19 148 6 35 22 35
22 15 42 -19 18 -22 18 -43 3 -57 -39 -131 0 -131 69 0 69 74 108 131 69 21
-15 24 -15 43 3 19 20 19 20 -9 38 -42 28 -121 31 -160 6z"/>
<path d="M827 1204 c-4 -4 -7 -65 -7 -136 l0 -128 95 0 c94 0 95 0 95 25 0 23
-4 24 -62 27 -60 3 -63 4 -66 31 -3 27 -3 27 57 27 58 0 61 1 61 25 0 22 -4
24 -57 27 -54 3 -58 5 -58 28 0 24 3 25 63 28 59 3 63 5 60 25 -3 20 -9 22
-88 25 -47 1 -89 0 -93 -4z"/>
<path d="M1090 1075 l0 -135 80 0 c78 0 80 1 80 24 0 23 -4 25 -52 28 l-53 3
-3 108 c-3 106 -3 107 -27 107 l-25 0 0 -135z"/>
<path d="M1320 1075 l0 -136 92 3 c87 3 91 4 93 26 2 21 -2 22 -62 22 l-63 0
0 30 c0 30 1 30 55 30 52 0 55 1 55 25 0 24 -3 25 -55 25 -54 0 -55 0 -55 30
l0 30 60 0 c57 0 60 1 60 25 0 25 -1 25 -90 25 l-90 0 0 -135z"/>
<path d="M1606 1189 c-19 -15 -26 -30 -26 -53 0 -39 17 -56 83 -85 36 -15 48
-25 45 -38 -4 -24 -53 -29 -84 -8 -19 12 -29 13 -46 4 -22 -12 -22 -12 10 -40
27 -24 41 -29 83 -29 122 0 133 123 14 163 -28 10 -40 20 -40 33 0 23 39 31
61 13 12 -10 18 -9 32 5 16 16 16 18 -7 37 -31 26 -91 25 -125 -2z"/>
<path d="M1810 1186 c0 -21 5 -25 38 -28 l37 -3 3 -107 c3 -107 3 -108 27
-108 24 0 24 1 27 108 l3 107 33 3 c26 3 32 7 32 28 0 24 -1 24 -100 24 -99 0
-100 0 -100 -24z"/>
<path d="M2060 1205 c0 -2 20 -39 45 -81 38 -65 45 -84 45 -130 0 -53 0 -54
30 -54 29 0 30 1 30 49 0 42 8 63 50 133 46 77 49 83 29 86 -33 6 -45 -3 -76
-58 l-30 -52 -32 56 c-28 48 -37 56 -62 56 -16 0 -29 -2 -29 -5z"/>
<path d="M2366 1082 c-36 -72 -66 -134 -66 -137 0 -3 13 -5 29 -5 21 0 32 6
36 20 5 17 15 20 64 20 48 0 61 -4 72 -21 10 -14 22 -20 41 -17 l26 3 -68 135
-67 135 -67 -133z m94 -39 c0 -8 -12 -13 -30 -13 -35 0 -35 1 -14 42 l16 32
14 -25 c7 -13 13 -30 14 -36z"/>
<path d="M2630 1075 l0 -135 80 0 c79 0 80 0 80 25 0 23 -3 25 -50 25 l-50 0
0 110 0 110 -30 0 -30 0 0 -135z"/>
</g>
</svg>
