<?xml version="1.0" standalone="no"?>
<!DOCTYPE svg PUBLIC "-//W3C//DTD SVG 20010904//EN"
 "http://www.w3.org/TR/2001/REC-SVG-20010904/DTD/svg10.dtd">
<svg version="1.0" xmlns="http://www.w3.org/2000/svg"
 width="300.000000pt" height="277.000000pt" viewBox="0 0 300.000000 277.000000"
 preserveAspectRatio="xMidYMid meet">

<g transform="translate(0.000000,277.000000) scale(0.100000,-0.100000)"
fill="#000000" stroke="none">
<path d="M40 2065 l0 -665 1460 0 1460 0 0 665 0 665 -1460 0 -1460 0 0 -665z
m2544 399 c16 -10 35 -33 42 -51 8 -18 24 -38 36 -44 13 -6 31 -19 42 -28 17
-15 9 -16 -115 -22 -224 -11 -361 -26 -426 -48 -64 -21 -104 -25 -136 -12 -15
6 -11 12 30 41 93 67 104 92 51 115 -22 9 -28 15 -18 18 8 3 23 8 32 11 10 3
42 1 73 -4 42 -7 63 -6 90 6 113 47 244 55 299 18z m-148 -215 c19 -11 37 -32
40 -45 4 -14 26 -38 50 -55 24 -16 44 -34 44 -38 0 -4 -44 -6 -98 -3 -59 3
-120 0 -153 -8 -30 -7 -92 -13 -139 -15 -57 -2 -109 -11 -160 -28 -56 -18 -86
-23 -120 -18 l-44 6 68 53 c51 41 66 58 64 75 -2 16 -11 23 -30 25 -16 2 -28
7 -28 12 0 16 49 23 113 17 50 -5 75 -2 132 18 94 33 212 35 261 4z m-507 -73
l33 -12 -55 -42 -56 -42 -688 0 c-426 0 -683 4 -678 9 6 6 248 17 540 25 752
22 744 22 807 50 62 29 54 28 97 12z m360 -143 c14 -11 32 -33 39 -49 8 -16
31 -40 53 -52 21 -12 39 -27 39 -32 0 -6 -51 -10 -125 -10 -154 0 -187 -10
-320 -98 -68 -45 -132 -77 -200 -101 l-100 -36 -743 -3 c-528 -3 -742 -1 -742
7 0 6 10 11 23 11 12 0 303 9 646 20 l623 19 92 45 c95 47 245 154 260 186 11
24 -8 50 -36 50 -10 0 -17 4 -14 9 10 15 62 20 116 12 42 -7 62 -4 103 11 112
43 236 47 286 11z m-479 -83 c0 -3 -22 -22 -50 -43 l-49 -37 -688 0 c-378 0
-683 4 -678 8 6 5 291 17 635 26 646 19 668 20 744 63 17 9 86 -5 86 -17z"/>
<path d="M40 700 l0 -660 1460 0 1460 0 0 660 0 660 -1460 0 -1460 0 0 -660z
m2683 401 c23 -9 27 -16 27 -51 0 -22 -2 -40 -4 -40 -2 0 -23 7 -46 15 -114
40 -190 -2 -190 -105 0 -89 90 -133 185 -91 26 11 51 21 56 21 5 0 9 -18 9
-40 0 -36 -3 -41 -37 -56 -22 -10 -67 -17 -108 -18 -81 -1 -120 16 -167 75
-34 42 -47 125 -29 181 15 44 67 95 117 114 43 16 141 13 187 -5z m-2373 -66
l0 -75 80 0 80 0 0 75 0 75 50 0 50 0 0 -185 0 -185 -50 0 -50 0 0 75 0 75
-80 0 -80 0 0 -75 0 -75 -50 0 -50 0 0 185 0 185 50 0 50 0 0 -75z m568 43
l-3 -33 -77 -3 -78 -3 0 -34 0 -35 75 0 75 0 0 -35 0 -35 -75 0 -75 0 0 -45 0
-45 80 0 80 0 0 -35 0 -35 -130 0 -130 0 0 185 0 185 131 0 130 0 -3 -32z
m142 -118 l0 -150 80 0 80 0 0 -35 0 -35 -130 0 -130 0 0 185 0 185 50 0 50 0
0 -150z m280 0 l0 -150 80 0 80 0 0 -35 0 -35 -125 0 -125 0 0 185 0 185 45 0
45 0 0 -150z m440 115 l0 -35 -75 0 -75 0 0 -35 0 -34 73 -3 72 -3 3 -32 3
-33 -75 0 -76 0 0 -45 0 -45 80 0 80 0 0 -35 0 -35 -130 0 -130 0 0 185 0 185
125 0 125 0 0 -35z m232 -70 l93 -105 3 105 3 105 49 0 50 0 0 -185 0 -185
-39 0 c-37 0 -44 5 -138 111 l-98 112 -3 -112 -3 -111 -49 0 -50 0 0 185 0
185 44 0 c44 0 46 -1 138 -105z m358 -80 l0 -185 -50 0 -50 0 0 185 0 185 50
0 50 0 0 -185z m-1815 -259 c32 -14 35 -19 35 -55 0 -45 -8 -49 -45 -25 -34
22 -89 15 -93 -13 -3 -17 9 -29 50 -56 29 -19 61 -43 71 -54 42 -47 38 -120
-9 -164 -21 -20 -36 -24 -83 -24 -79 1 -111 22 -111 74 0 49 8 56 35 31 39
-37 107 -45 119 -14 9 24 -10 49 -64 84 -66 42 -90 74 -90 119 0 86 94 135
185 97z m323 -28 l3 -38 -81 0 -81 0 3 -42 3 -43 78 -3 78 -3 -3 -32 -3 -32
-77 -3 -78 -3 0 -44 0 -44 83 -3 82 -3 3 -29 c2 -16 -2 -32 -10 -37 -15 -10
-198 -12 -222 -3 -14 5 -16 32 -16 199 0 145 3 195 13 199 6 2 59 4 117 3
l105 -2 3 -37z m344 -158 c72 -161 85 -196 72 -203 -32 -18 -59 -3 -87 51
l-28 52 -72 0 -72 0 -19 -48 c-11 -26 -24 -50 -30 -54 -19 -13 -56 -9 -62 6
-3 8 25 86 62 173 36 87 73 173 81 191 11 28 18 33 41 30 25 -3 34 -19 114
-198z m75 188 c6 -7 27 -56 47 -108 21 -52 41 -99 46 -103 4 -5 27 41 51 102
28 70 50 113 62 117 39 12 55 -6 97 -111 23 -58 46 -107 50 -110 4 -2 26 45
49 105 43 112 58 129 101 115 11 -3 20 -9 20 -13 -1 -4 -36 -92 -78 -197 -52
-128 -82 -190 -92 -190 -10 0 -34 47 -71 140 l-57 139 -14 -34 c-8 -19 -35
-84 -59 -143 -30 -75 -48 -107 -58 -105 -22 4 -175 389 -158 400 19 12 53 10
64 -4z m740 -178 c45 -102 83 -191 83 -198 0 -17 -25 -26 -53 -18 -14 4 -29
23 -44 56 l-22 50 -73 0 -73 0 -25 -53 c-25 -53 -51 -68 -84 -50 -13 7 31 123
144 381 8 18 17 23 37 20 25 -3 34 -19 110 -188z m96 167 c12 -12 36 -40 54
-62 17 -22 33 -38 35 -35 2 3 25 31 52 63 36 43 54 57 74 57 58 0 56 -13 -18
-107 l-70 -91 0 -101 c0 -99 0 -101 -25 -107 -50 -12 -55 -3 -55 106 l0 102
-62 76 c-34 42 -66 83 -72 90 -7 10 -5 16 5 23 25 15 59 10 82 -14z m442 9
c32 -14 35 -19 35 -55 0 -44 -11 -51 -44 -26 -11 8 -37 15 -57 15 -65 0 -57
-43 16 -86 67 -39 95 -77 95 -130 0 -34 -6 -51 -29 -76 -27 -30 -34 -33 -88
-33 -84 0 -113 21 -113 80 0 51 4 54 35 25 35 -33 81 -42 106 -21 29 23 15 49
-51 91 -65 42 -90 74 -90 117 0 45 14 70 53 93 38 24 85 25 132 6z"/>
<path d="M1087 502 l-15 -37 30 -3 c39 -4 43 1 28 38 -18 44 -26 44 -43 2z"/>
<path d="M1907 503 l-15 -38 30 -3 c16 -2 32 -1 35 1 5 5 -23 77 -30 77 -3 0
-12 -17 -20 -37z"/>
</g>
</svg>
