<?xml version="1.0" standalone="no"?>
<!DOCTYPE svg PUBLIC "-//W3C//DTD SVG 20010904//EN"
 "http://www.w3.org/TR/2001/REC-SVG-20010904/DTD/svg10.dtd">
<svg version="1.0" xmlns="http://www.w3.org/2000/svg"
 width="225.000000pt" height="225.000000pt" viewBox="0 0 225.000000 225.000000"
 preserveAspectRatio="xMidYMid meet">

<g transform="translate(0.000000,225.000000) scale(0.100000,-0.100000)"
fill="#000000" stroke="none">
<path d="M1985 1586 c-70 -18 -83 -24 -60 -27 26 -3 11 -14 -125 -85 -85 -44
-255 -134 -377 -198 -254 -135 -266 -137 -292 -66 -15 42 -19 45 -55 48 -32 3
-50 -5 -109 -43 -40 -27 -86 -49 -108 -52 -37 -5 -38 -4 -61 43 -20 44 -27 49
-58 52 -28 2 -50 -7 -105 -43 -103 -67 -140 -72 -163 -20 -7 17 -17 37 -21 45
-12 22 -64 24 -103 4 -27 -14 -152 -105 -168 -122 -12 -13 41 12 102 49 83 51
127 51 143 3 26 -80 79 -83 179 -13 65 46 131 59 146 29 4 -8 13 -28 21 -45
24 -50 68 -46 164 15 74 47 116 60 141 42 5 -4 17 -25 25 -47 12 -34 20 -40
47 -43 36 -4 30 -7 432 218 151 84 329 182 395 217 66 34 116 62 110 62 -5 -1
-50 -11 -100 -23z"/>
<path d="M236 1060 c-42 -8 -86 -48 -86 -78 0 -45 37 -66 148 -87 23 -5 32
-12 32 -26 0 -27 -47 -36 -83 -16 -32 19 -107 23 -107 6 0 -6 13 -24 29 -40
27 -27 35 -29 106 -29 110 0 145 22 145 89 0 39 -25 57 -98 74 -67 16 -89 28
-78 46 9 14 63 14 71 1 7 -12 105 -14 105 -2 0 4 -7 17 -15 29 -14 20 -28 25
-110 37 -11 2 -38 0 -59 -4z"/>
<path d="M1945 1063 c-54 -10 -67 -15 -85 -33 -28 -28 -26 -74 5 -98 13 -11
51 -25 84 -31 65 -13 79 -24 61 -46 -16 -19 -51 -19 -76 0 -26 20 -104 20
-104 0 0 -21 35 -53 65 -61 14 -3 57 -4 96 -2 63 3 74 7 95 31 28 33 31 78 7
99 -10 8 -51 23 -91 33 -57 13 -72 21 -70 34 4 19 55 28 71 12 6 -6 33 -11 59
-11 46 0 48 1 38 20 -21 39 -94 64 -155 53z"/>
<path d="M440 920 l0 -131 138 3 137 3 3 28 3 27 -95 0 c-89 0 -96 1 -96 20 0
18 7 20 85 20 l85 0 0 30 0 30 -85 0 c-84 0 -85 0 -85 25 0 25 1 25 90 25 89
0 90 0 90 25 l0 25 -135 0 -135 0 0 -130z"/>
<path d="M782 927 c-28 -67 -52 -125 -52 -129 0 -5 22 -8 49 -8 44 0 49 3 55
25 6 23 11 25 56 25 45 0 52 -3 60 -25 8 -22 16 -25 55 -25 25 0 45 3 45 8 0
4 -23 62 -52 130 l-52 122 -56 0 -55 0 -53 -123z m126 10 c17 -46 16 -47 -19
-47 -24 0 -30 3 -25 16 3 9 9 27 12 40 8 33 18 30 32 -9z"/>
<path d="M1120 955 c0 -92 -1 -95 -24 -101 -26 -6 -39 -34 -26 -54 5 -9 23
-11 56 -7 74 8 84 27 84 153 l0 104 -45 0 -45 0 0 -95z"/>
<path d="M1242 923 l3 -128 138 -3 137 -3 0 31 0 30 -90 0 c-83 0 -90 1 -90
20 0 18 7 20 80 20 44 0 80 3 81 8 0 4 2 17 5 30 4 21 2 22 -81 22 -84 0 -85
0 -85 25 0 25 1 25 90 25 89 0 90 0 90 25 l0 25 -140 0 -141 0 3 -127z"/>
<path d="M1540 1025 c0 -23 4 -25 45 -25 l45 0 0 -105 0 -105 45 0 44 0 3 103
3 102 48 3 c42 3 47 5 47 28 l0 24 -140 0 -140 0 0 -25z"/>
</g>
</svg>
