<?xml version="1.0" standalone="no"?>
<!DOCTYPE svg PUBLIC "-//W3C//DTD SVG 20010904//EN"
 "http://www.w3.org/TR/2001/REC-SVG-20010904/DTD/svg10.dtd">
<svg version="1.0" xmlns="http://www.w3.org/2000/svg"
 width="225.000000pt" height="225.000000pt" viewBox="0 0 225.000000 225.000000"
 preserveAspectRatio="xMidYMid meet">

<g transform="translate(0.000000,225.000000) scale(0.100000,-0.100000)"
fill="#000000" stroke="none">
<path d="M1630 1750 c-18 -6 -20 -8 -7 -9 10 -1 15 -5 12 -11 -8 -13 15 -13
35 0 12 8 12 10 -5 10 -17 0 -17 2 -5 10 18 11 5 11 -30 0z"/>
<path d="M1521 1739 c-13 -5 -21 -12 -18 -15 3 -3 14 -1 25 5 26 14 45 14 37
1 -8 -12 5 -13 23 -1 10 6 8 10 -10 14 -28 8 -27 8 -57 -4z"/>
<path d="M1698 1743 c7 -3 16 -2 19 1 4 3 -2 6 -13 5 -11 0 -14 -3 -6 -6z"/>
<path d="M1467 1713 c-3 -5 6 -9 20 -10 19 -1 22 1 12 8 -17 11 -26 11 -32 2z"/>
<path d="M1595 1710 c-3 -6 1 -7 9 -4 18 7 21 14 7 14 -6 0 -13 -4 -16 -10z"/>
<path d="M1754 1708 c-4 -7 -3 -10 1 -5 5 4 20 -3 34 -15 l26 -23 -24 28 c-28
31 -28 31 -37 15z"/>
<path d="M1545 1690 c-3 -6 1 -7 9 -4 18 7 21 14 7 14 -6 0 -13 -4 -16 -10z"/>
<path d="M1382 1649 c-23 -17 -42 -33 -42 -36 0 -2 14 6 31 18 25 18 33 19 39
8 5 -7 13 -10 17 -5 4 5 2 11 -5 13 -10 4 -10 8 -1 19 18 22 7 17 -39 -17z"/>
<path d="M1455 1670 c-3 -5 -1 -10 4 -10 6 0 11 5 11 10 0 6 -2 10 -4 10 -3 0
-8 -4 -11 -10z"/>
<path d="M1490 1666 c0 -8 -9 -17 -19 -21 -11 -3 -22 -13 -25 -21 -3 -9 8 -4
29 12 19 14 32 30 29 35 -8 13 -14 11 -14 -5z"/>
<path d="M1906 1623 c-6 -14 -5 -15 5 -6 7 7 10 15 7 18 -3 3 -9 -2 -12 -12z"/>
<path d="M1370 1610 c0 -5 5 -10 10 -10 6 0 10 5 10 10 0 6 -4 10 -10 10 -5 0
-10 -4 -10 -10z"/>
<path d="M1400 1590 c0 -5 5 -10 10 -10 6 0 10 5 10 10 0 6 -4 10 -10 10 -5 0
-10 -4 -10 -10z"/>
<path d="M1329 1573 c-12 -16 -12 -17 2 -6 9 7 20 9 24 5 5 -4 5 -1 1 6 -9 16
-11 15 -27 -5z"/>
<path d="M440 1575 c0 -3 20 -14 45 -25 56 -24 67 -46 125 -253 43 -152 45
-183 11 -172 -11 3 -22 1 -25 -4 -10 -15 12 -23 32 -12 14 7 21 5 30 -9 6 -11
39 -124 72 -252 33 -128 64 -246 68 -263 7 -26 13 -30 50 -33 l41 -3 15 53 c8
29 42 157 75 283 71 273 99 365 110 365 5 0 43 -141 85 -312 106 -436 89 -390
138 -386 l42 3 38 145 c176 660 216 799 239 826 6 8 29 19 50 24 71 19 42 30
-78 30 l-118 -1 28 -20 c15 -12 27 -30 27 -42 0 -43 -188 -717 -199 -717 -7 0
-152 527 -151 546 0 6 22 33 49 59 38 37 47 51 38 60 -7 7 -16 11 -21 8 -4 -3
-3 -9 3 -12 7 -5 -3 -22 -28 -49 -47 -49 -54 -51 -45 -17 4 15 2 25 -5 25 -6
0 -11 8 -11 18 0 10 -4 22 -9 27 -4 6 -11 23 -15 38 -6 24 -2 30 24 45 16 9
30 20 30 25 0 4 -67 7 -150 7 -82 0 -150 -4 -150 -8 0 -5 17 -14 39 -20 49
-15 56 -24 86 -112 22 -63 23 -75 11 -98 -7 -15 -19 -52 -27 -82 -14 -57 -25
-73 -46 -65 -7 2 -10 -2 -6 -11 3 -8 -1 -14 -9 -14 -8 0 -23 -7 -34 -15 -17
-14 -17 -14 11 -3 17 6 38 18 47 26 16 13 18 13 18 -2 0 -26 -103 -376 -110
-376 -9 0 -82 276 -79 298 1 9 -5 33 -14 52 -17 34 -97 345 -97 374 0 8 16 20
35 27 19 7 35 17 35 21 0 4 -72 8 -160 8 -88 0 -160 -2 -160 -5z"/>
<path d="M1805 1570 c3 -5 11 -10 16 -10 6 0 7 5 4 10 -3 6 -11 10 -16 10 -6
0 -7 -4 -4 -10z"/>
<path d="M1974 1569 c-3 -6 -17 -8 -29 -5 -25 6 -43 -8 -25 -19 16 -10 2 -25
-18 -19 -13 5 -14 4 -4 -4 8 -5 13 -12 12 -16 -1 -4 0 -10 3 -14 2 -4 2 -2 1
5 -2 6 4 17 12 24 11 9 12 15 3 25 -13 16 2 19 17 5 5 -6 18 -2 33 10 13 10
18 19 13 19 -6 0 -14 -5 -18 -11z"/>
<path d="M1370 1549 c0 -6 -9 -8 -21 -4 -15 5 -19 4 -15 -4 10 -16 31 -14 46
4 9 10 9 15 1 15 -6 0 -11 -5 -11 -11z"/>
<path d="M1860 1550 c0 -6 7 -10 15 -10 8 0 15 2 15 4 0 2 -7 6 -15 10 -8 3
-15 1 -15 -4z"/>
<path d="M1834 1541 c7 -11 46 -35 46 -28 0 3 -12 12 -26 22 -15 9 -23 12 -20
6z"/>
<path d="M1240 1534 c0 -3 7 -12 16 -21 12 -12 20 -13 40 -5 13 7 24 17 24 24
0 9 -3 9 -8 3 -9 -14 -52 -17 -52 -4 0 5 -4 9 -10 9 -5 0 -10 -3 -10 -6z"/>
<path d="M1310 1495 c-13 -14 -20 -25 -17 -25 10 0 49 41 45 46 -3 2 -15 -7
-28 -21z"/>
<path d="M1190 1485 c-7 -9 -10 -18 -7 -21 3 -3 10 4 17 15 13 25 8 27 -10 6z"/>
<path d="M1205 1459 c-16 -17 -17 -22 -5 -29 19 -12 34 -1 20 15 -8 10 -7 14
2 18 7 2 10 7 7 11 -3 3 -14 -3 -24 -15z"/>
<path d="M954 1258 l-19 -21 28 18 c28 18 33 25 19 25 -5 0 -17 -10 -28 -22z"/>
<path d="M976 1225 c4 -8 8 -15 10 -15 2 0 4 7 4 15 0 8 -4 15 -10 15 -5 0 -7
-7 -4 -15z"/>
<path d="M462 1201 c13 -16 30 -32 38 -36 8 -3 -1 10 -19 29 -42 44 -51 46
-19 7z"/>
<path d="M950 1220 c0 -5 5 -10 11 -10 5 0 7 5 4 10 -3 6 -8 10 -11 10 -2 0
-4 -4 -4 -10z"/>
<path d="M860 1190 c-9 -6 -10 -10 -3 -10 6 0 15 5 18 10 8 12 4 12 -15 0z"/>
<path d="M905 1180 c-3 -6 1 -7 9 -4 18 7 21 14 7 14 -6 0 -13 -4 -16 -10z"/>
<path d="M805 1160 c-19 -8 -19 -9 2 -9 15 -1 21 -7 20 -21 -1 -11 -6 -20 -11
-20 -5 0 -7 -2 -4 -5 3 -3 16 -1 29 4 21 9 22 10 4 11 l-20 1 20 9 c18 7 19 8
3 15 -10 4 -15 11 -12 16 6 11 -4 11 -31 -1z"/>
<path d="M520 1143 c0 -1 9 -7 20 -13 15 -8 20 -8 20 3 0 7 -9 13 -20 13 -11
0 -20 -1 -20 -3z"/>
</g>
</svg>
